<svg width="403" height="158" viewBox="0 0 403 158" fill="none" xmlns="http://www.w3.org/2000/svg">
<g style="mix-blend-mode:lighten" filter="url(#filter0_d_0:1)">
<path d="M491 -95.5C491 38.429 382.429 147 248.5 147C114.571 147 6 38.429 6 -95.5C6 -229.429 114.571 -338 248.5 -338C382.429 -338 491 -229.429 491 -95.5Z" fill="url(#paint0_linear_0:1)" shape-rendering="crispEdges"/>
</g>
<path d="M111.698 62.3401C123.527 62.3401 130.863 55.0419 130.863 42.9097C130.863 30.7965 123.527 23.5173 111.679 23.5173H97.3482V62.3401H111.698ZM106.732 54.3405V31.5169H111.205C117.878 31.5169 121.461 34.5499 121.461 42.9097C121.461 51.3074 117.878 54.3405 111.338 54.3405H106.732ZM143.642 62.833C147.699 62.833 150.504 61.2596 152.097 58.2834H152.324V62.3401H161.044V42.5495C161.044 36.3887 155.566 32.8438 148.154 32.8438C140.325 32.8438 135.889 36.7868 135.15 42.0946L143.699 42.3979C144.097 40.5402 145.633 39.4028 148.078 39.4028C150.353 39.4028 151.794 40.5022 151.794 42.4548V42.5495C151.794 44.3315 149.86 44.7106 144.893 45.1466C138.998 45.6395 134.069 47.8194 134.069 54.2646C134.069 60.0274 138.069 62.833 143.642 62.833ZM146.505 56.7669C144.363 56.7669 142.846 55.7432 142.846 53.8097C142.846 51.933 144.325 50.7956 146.96 50.3975C148.685 50.1511 150.808 49.772 151.85 49.2222V51.9899C151.85 54.8333 149.462 56.7669 146.505 56.7669ZM191.225 42.1136C190.733 36.3508 186.012 32.8438 178.126 32.8438C170.241 32.8438 165.217 36.275 165.255 42.1136C165.217 46.5873 168.08 49.4687 173.899 50.5492L178.98 51.516C181.387 51.9899 182.486 52.7481 182.524 54.0372C182.486 55.4968 180.856 56.4636 178.487 56.4636C175.852 56.4636 174.07 55.3262 173.672 53.2031L164.516 53.4306C165.179 59.1933 170.127 62.8898 178.449 62.8898C186.24 62.8898 191.908 59.0038 191.946 53.0135C191.908 48.7673 189.102 46.2461 183.302 45.1276L177.69 44.0661C175.226 43.5732 174.43 42.7012 174.449 41.5828C174.43 40.1042 176.155 39.1943 178.297 39.1943C180.742 39.1943 182.449 40.5022 182.714 42.341L191.225 42.1136ZM204.872 45.7342C204.891 42.4169 206.862 40.4454 209.8 40.4454C212.777 40.4454 214.502 42.36 214.483 45.6015V62.3401H223.752V43.7817C223.771 37.1849 219.753 32.8438 213.63 32.8438C209.27 32.8438 206.199 34.9859 204.891 38.5687H204.568V23.5173H195.602V62.3401H204.872V45.7342ZM228.631 62.3401H237.806V57.6199H238.091C239.266 60.3117 241.882 62.7571 246.28 62.7571C252.725 62.7571 257.919 57.7147 257.919 47.8005C257.919 37.5261 252.422 32.8438 246.337 32.8438C241.73 32.8438 239.209 35.5357 238.091 38.2085H237.901V23.5173H228.631V62.3401ZM237.711 47.7815C237.711 43.0235 239.683 40.0852 243.076 40.0852C246.507 40.0852 248.403 43.0993 248.403 47.7815C248.403 52.4827 246.507 55.5347 243.076 55.5347C239.683 55.5347 237.711 52.5017 237.711 47.7815ZM275.461 62.8898C284.617 62.8898 290.171 56.8427 290.171 47.8763C290.171 38.891 284.617 32.8438 275.461 32.8438C266.305 32.8438 260.751 38.891 260.751 47.8763C260.751 56.8427 266.305 62.8898 275.461 62.8898ZM275.518 55.8949C272.087 55.8949 270.191 52.6344 270.191 47.8194C270.191 42.9855 272.087 39.7061 275.518 39.7061C278.835 39.7061 280.731 42.9855 280.731 47.8194C280.731 52.6344 278.835 55.8949 275.518 55.8949ZM302.22 62.833C306.277 62.833 309.083 61.2596 310.675 58.2834H310.902V62.3401H319.622V42.5495C319.622 36.3887 314.144 32.8438 306.732 32.8438C298.903 32.8438 294.467 36.7868 293.728 42.0946L302.277 42.3979C302.675 40.5402 304.211 39.4028 306.656 39.4028C308.931 39.4028 310.372 40.5022 310.372 42.4548V42.5495C310.372 44.3315 308.438 44.7106 303.472 45.1466C297.576 45.6395 292.647 47.8194 292.647 54.2646C292.647 60.0274 296.647 62.833 302.22 62.833ZM305.083 56.7669C302.941 56.7669 301.424 55.7432 301.424 53.8097C301.424 51.933 302.903 50.7956 305.538 50.3975C307.263 50.1511 309.386 49.772 310.429 49.2222V51.9899C310.429 54.8333 308.04 56.7669 305.083 56.7669ZM324.383 62.3401H333.653V46.5304C333.653 43.0614 336.117 40.7297 339.434 40.7297C340.534 40.7297 342.183 40.9193 343.074 41.2226V33.1661C342.297 32.9576 341.33 32.8249 340.477 32.8249C337.292 32.8249 334.752 34.6826 333.691 38.5308H333.387V33.223H324.383V62.3401ZM355.066 62.7571C359.464 62.7571 362.08 60.3117 363.256 57.6199H363.54V62.3401H372.715V23.5173H363.445V38.2085H363.256C362.156 35.5357 359.616 32.8438 355.028 32.8438C348.943 32.8438 343.427 37.5261 343.427 47.8005C343.427 57.7147 348.64 62.7571 355.066 62.7571ZM358.289 55.5347C354.858 55.5347 352.943 52.4827 352.943 47.7815C352.943 43.0993 354.839 40.0852 358.289 40.0852C361.682 40.0852 363.654 43.0235 363.654 47.7815C363.654 52.5017 361.663 55.5347 358.289 55.5347Z" fill="white"/>
<defs>
<filter id="filter0_d_0:1" x="0.894737" y="-338" width="495.211" height="495.211" filterUnits="userSpaceOnUse" color-interpolation-filters="sRGB">
<feFlood flood-opacity="0" result="BackgroundImageFix"/>
<feColorMatrix in="SourceAlpha" type="matrix" values="0 0 0 0 0 0 0 0 0 0 0 0 0 0 0 0 0 0 127 0" result="hardAlpha"/>
<feOffset dy="5.10526"/>
<feGaussianBlur stdDeviation="2.55263"/>
<feComposite in2="hardAlpha" operator="out"/>
<feColorMatrix type="matrix" values="0 0 0 0 0 0 0 0 0 0 0 0 0 0 0 0 0 0 0.25 0"/>
<feBlend mode="normal" in2="BackgroundImageFix" result="effect1_dropShadow_0:1"/>
<feBlend mode="normal" in="SourceGraphic" in2="effect1_dropShadow_0:1" result="shape"/>
</filter>
<linearGradient id="paint0_linear_0:1" x1="27.6974" y1="-253.763" x2="248.5" y2="147" gradientUnits="userSpaceOnUse">
<stop stop-color="#FF0000"/>
<stop offset="1" stop-color="#FF0000" stop-opacity="0.14"/>
</linearGradient>
</defs>
</svg>
